<svg xmlns="http://www.w3.org/2000/svg" xmlns:xlink="http://www.w3.org/1999/xlink" width="40" zoomAndPan="magnify" viewBox="0 0 30 30.000001" height="40" preserveAspectRatio="xMidYMid meet" version="1.0"><defs><clipPath id="c4093a8f0b"><path d="M 0.484375 0 L 29.515625 0 L 29.515625 29.03125 L 0.484375 29.03125 Z M 0.484375 0 " clip-rule="nonzero"/></clipPath><clipPath id="7d898e12de"><path d="M 9.195312 9.152344 L 20.804688 9.152344 L 20.804688 20.039062 L 9.195312 20.039062 Z M 9.195312 9.152344 " clip-rule="nonzero"/></clipPath></defs><g clip-path="url(#c4093a8f0b)"><path fill="#ffffff" d="M 0.484375 0 L 29.515625 0 L 29.515625 29.03125 L 0.484375 29.03125 Z M 0.484375 0 " fill-opacity="1" fill-rule="nonzero"/><path fill="#000000" d="M 0.484375 0 L 29.515625 0 L 29.515625 29.03125 L 0.484375 29.03125 Z M 0.484375 0 " fill-opacity="1" fill-rule="nonzero"/></g><path fill="#000000" d="M 18.484375 14.59375 C 18.484375 16.351562 17.09375 17.773438 15.363281 17.78125 C 14.5 17.785156 13.761719 17.480469 13.148438 16.867188 L 11.988281 17.078125 C 11.925781 17.089844 11.875 17.070312 11.839844 17.019531 C 11.800781 16.96875 11.796875 16.914062 11.824219 16.855469 L 12.410156 15.714844 C 12.273438 15.34375 12.207031 14.957031 12.210938 14.558594 C 12.230469 12.808594 13.625 11.40625 15.347656 11.40625 C 17.082031 11.40625 18.484375 12.835938 18.484375 14.59375 Z M 18.484375 14.59375 " fill-opacity="1" fill-rule="nonzero"/><g clip-path="url(#7d898e12de)"><path fill="#ffffff" d="M 15.4375 9.152344 C 12.480469 9.152344 10.082031 11.589844 10.082031 14.59375 C 10.082031 15.261719 10.195312 15.90625 10.429688 16.53125 L 9.238281 18.800781 C 9.199219 18.875 9.203125 18.941406 9.25 19.007812 C 9.296875 19.074219 9.359375 19.101562 9.441406 19.085938 L 11.886719 18.667969 C 12.898438 19.582031 14.085938 20.039062 15.4375 20.039062 C 18.398438 20.039062 20.796875 17.601562 20.796875 14.59375 C 20.796875 11.589844 18.394531 9.152344 15.4375 9.152344 Z M 15.453125 18.617188 C 14.367188 18.625 13.433594 18.238281 12.660156 17.460938 L 11.195312 17.730469 C 11.117188 17.746094 11.054688 17.71875 11.007812 17.652344 C 10.960938 17.589844 10.953125 17.523438 10.992188 17.449219 L 11.730469 16.011719 C 11.554688 15.539062 11.472656 15.050781 11.480469 14.546875 C 11.503906 12.339844 13.265625 10.570312 15.4375 10.570312 C 17.625 10.570312 19.398438 12.371094 19.398438 14.59375 C 19.398438 16.816406 17.640625 18.609375 15.453125 18.617188 Z M 15.453125 18.617188 " fill-opacity="1" fill-rule="nonzero"/></g><path fill="#ffffff" d="M 14.90625 13.519531 L 14.769531 12.933594 C 14.734375 12.789062 14.65625 12.683594 14.527344 12.613281 C 14.402344 12.546875 14.273438 12.535156 14.136719 12.585938 L 13.820312 12.699219 C 13.714844 12.738281 13.632812 12.808594 13.574219 12.90625 C 13.515625 13.003906 13.492188 13.109375 13.503906 13.222656 C 13.617188 14.128906 14.121094 16.328125 16.453125 16.8125 C 16.660156 16.855469 16.824219 16.789062 16.945312 16.609375 L 17.125 16.34375 C 17.203125 16.234375 17.226562 16.109375 17.203125 15.976562 C 17.179688 15.84375 17.113281 15.738281 17.003906 15.664062 L 17 15.660156 L 16.601562 15.386719 C 16.402344 15.246094 16.210938 15.257812 16.023438 15.414062 C 15.839844 15.566406 15.648438 15.578125 15.449219 15.441406 C 15.207031 15.277344 14.878906 15 14.667969 14.621094 C 14.558594 14.425781 14.574219 14.242188 14.710938 14.070312 L 14.8125 13.941406 C 14.910156 13.816406 14.941406 13.675781 14.90625 13.519531 Z M 14.90625 13.519531 " fill-opacity="1" fill-rule="nonzero"/></svg>