<svg xmlns="http://www.w3.org/2000/svg" xmlns:xlink="http://www.w3.org/1999/xlink" width="40" zoomAndPan="magnify" viewBox="0 0 30 30.000001" height="40" preserveAspectRatio="xMidYMid meet" version="1.0"><defs><clipPath id="f8198526bb"><path d="M 0.484375 0 L 29.515625 0 L 29.515625 29.03125 L 0.484375 29.03125 Z M 0.484375 0 " clip-rule="nonzero"/></clipPath><clipPath id="6e9b757d73"><path d="M 8.175781 7.695312 L 21.96875 7.695312 L 21.96875 21.484375 L 8.175781 21.484375 Z M 8.175781 7.695312 " clip-rule="nonzero"/></clipPath></defs><g clip-path="url(#f8198526bb)"><path fill="#ffffff" d="M 0.484375 0 L 29.515625 0 L 29.515625 29.03125 L 0.484375 29.03125 Z M 0.484375 0 " fill-opacity="1" fill-rule="nonzero"/><path fill="#000000" d="M 0.484375 0 L 29.515625 0 L 29.515625 29.03125 L 0.484375 29.03125 Z M 0.484375 0 " fill-opacity="1" fill-rule="nonzero"/></g><g clip-path="url(#6e9b757d73)"><path fill="#ffffff" d="M 15.074219 7.695312 C 14.621094 7.695312 14.175781 7.738281 13.730469 7.828125 C 13.285156 7.914062 12.855469 8.046875 12.4375 8.21875 C 12.019531 8.394531 11.621094 8.605469 11.246094 8.855469 C 10.867188 9.109375 10.519531 9.394531 10.199219 9.714844 C 9.878906 10.035156 9.59375 10.382812 9.34375 10.761719 C 9.089844 11.136719 8.878906 11.535156 8.707031 11.953125 C 8.53125 12.371094 8.402344 12.800781 8.3125 13.246094 C 8.226562 13.691406 8.183594 14.140625 8.183594 14.589844 C 8.183594 15.042969 8.226562 15.492188 8.316406 15.9375 C 8.402344 16.382812 8.535156 16.8125 8.707031 17.230469 C 8.882812 17.648438 9.09375 18.046875 9.34375 18.421875 C 9.597656 18.796875 9.882812 19.148438 10.203125 19.46875 C 10.523438 19.789062 10.871094 20.074219 11.25 20.324219 C 11.625 20.574219 12.023438 20.789062 12.441406 20.960938 C 12.859375 21.132812 13.289062 21.265625 13.734375 21.351562 C 14.179688 21.441406 14.628906 21.484375 15.078125 21.484375 C 15.53125 21.484375 15.980469 21.441406 16.425781 21.351562 C 16.871094 21.265625 17.300781 21.132812 17.71875 20.960938 C 18.136719 20.785156 18.535156 20.574219 18.910156 20.324219 C 19.289062 20.070312 19.636719 19.785156 19.957031 19.464844 C 20.277344 19.144531 20.5625 18.796875 20.8125 18.417969 C 21.0625 18.042969 21.277344 17.644531 21.449219 17.226562 C 21.621094 16.808594 21.753906 16.378906 21.84375 15.933594 C 21.929688 15.488281 21.972656 15.039062 21.972656 14.589844 C 21.972656 14.136719 21.929688 13.6875 21.839844 13.242188 C 21.75 12.800781 21.617188 12.367188 21.445312 11.949219 C 21.269531 11.53125 21.058594 11.136719 20.808594 10.757812 C 20.554688 10.382812 20.269531 10.035156 19.949219 9.714844 C 19.628906 9.394531 19.28125 9.109375 18.90625 8.859375 C 18.527344 8.605469 18.132812 8.394531 17.714844 8.222656 C 17.296875 8.046875 16.863281 7.917969 16.421875 7.828125 C 15.976562 7.738281 15.527344 7.695312 15.074219 7.695312 Z M 16.980469 20.40625 C 16.679688 20.46875 16.570312 20.285156 16.570312 20.125 C 16.570312 19.921875 16.578125 19.28125 16.578125 18.480469 C 16.578125 17.921875 16.390625 17.558594 16.175781 17.375 C 17.503906 17.226562 18.902344 16.71875 18.902344 14.421875 C 18.914062 13.804688 18.707031 13.269531 18.285156 12.816406 C 18.347656 12.667969 18.558594 12.054688 18.230469 11.230469 C 18.230469 11.230469 17.726562 11.066406 16.585938 11.839844 C 15.589844 11.574219 14.59375 11.574219 13.597656 11.839844 C 12.453125 11.078125 11.949219 11.230469 11.949219 11.230469 C 11.625 12.054688 11.832031 12.664062 11.894531 12.816406 C 11.476562 13.273438 11.273438 13.808594 11.28125 14.421875 C 11.28125 16.710938 12.671875 17.226562 14 17.375 C 13.828125 17.523438 13.671875 17.785156 13.617188 18.175781 C 13.273438 18.328125 12.417969 18.585938 11.882812 17.683594 C 11.765625 17.503906 11.433594 17.0625 10.960938 17.066406 C 10.460938 17.078125 10.757812 17.351562 10.964844 17.464844 C 11.222656 17.609375 11.511719 18.136719 11.582031 18.308594 C 11.699219 18.648438 12.085938 19.289062 13.589844 19.011719 C 13.589844 19.515625 13.597656 19.984375 13.597656 20.125 C 13.597656 20.28125 13.488281 20.457031 13.1875 20.40625 C 12.742188 20.253906 12.320312 20.058594 11.921875 19.808594 C 11.523438 19.558594 11.160156 19.269531 10.832031 18.933594 C 10.5 18.597656 10.214844 18.230469 9.972656 17.828125 C 9.730469 17.425781 9.539062 17 9.394531 16.554688 C 9.253906 16.105469 9.164062 15.648438 9.128906 15.179688 C 9.09375 14.710938 9.117188 14.246094 9.191406 13.785156 C 9.265625 13.320312 9.394531 12.871094 9.578125 12.4375 C 9.757812 12.003906 9.988281 11.597656 10.265625 11.21875 C 10.542969 10.839844 10.859375 10.5 11.21875 10.195312 C 11.574219 9.890625 11.960938 9.632812 12.382812 9.421875 C 12.800781 9.207031 13.238281 9.046875 13.695312 8.9375 C 14.152344 8.828125 14.613281 8.773438 15.082031 8.773438 C 15.554688 8.773438 16.015625 8.828125 16.472656 8.9375 C 16.929688 9.046875 17.367188 9.207031 17.785156 9.421875 C 18.203125 9.632812 18.59375 9.890625 18.949219 10.195312 C 19.308594 10.5 19.625 10.839844 19.902344 11.21875 C 20.179688 11.597656 20.410156 12.003906 20.589844 12.4375 C 20.773438 12.871094 20.898438 13.320312 20.976562 13.785156 C 21.050781 14.246094 21.070312 14.710938 21.039062 15.179688 C 21.003906 15.648438 20.914062 16.105469 20.773438 16.554688 C 20.628906 17 20.4375 17.425781 20.195312 17.828125 C 19.953125 18.230469 19.667969 18.597656 19.335938 18.933594 C 19.007812 19.269531 18.644531 19.558594 18.246094 19.808594 C 17.847656 20.058594 17.425781 20.253906 16.980469 20.40625 Z M 16.980469 20.40625 " fill-opacity="1" fill-rule="evenodd"/></g></svg>