<svg xmlns="http://www.w3.org/2000/svg" xmlns:xlink="http://www.w3.org/1999/xlink" width="40" zoomAndPan="magnify" viewBox="0 0 30 30.000001" height="40" preserveAspectRatio="xMidYMid meet" version="1.0"><defs><clipPath id="4d58589ed6"><path d="M 0.484375 0 L 29.515625 0 L 29.515625 29.03125 L 0.484375 29.03125 Z M 0.484375 0 " clip-rule="nonzero"/></clipPath><clipPath id="37e594f4dc"><path d="M 8.214844 6.824219 L 22.003906 6.824219 L 22.003906 20.613281 L 8.214844 20.613281 Z M 8.214844 6.824219 " clip-rule="nonzero"/></clipPath></defs><g clip-path="url(#4d58589ed6)"><path fill="#ffffff" d="M 0.484375 0 L 29.515625 0 L 29.515625 29.03125 L 0.484375 29.03125 Z M 0.484375 0 " fill-opacity="1" fill-rule="nonzero"/><path fill="#000000" d="M 0.484375 0 L 29.515625 0 L 29.515625 29.03125 L 0.484375 29.03125 Z M 0.484375 0 " fill-opacity="1" fill-rule="nonzero"/></g><g clip-path="url(#37e594f4dc)"><path fill="#ffffff" d="M 12.269531 6.824219 C 10.042969 6.824219 8.214844 8.648438 8.214844 10.878906 L 8.214844 16.558594 C 8.214844 18.785156 10.039062 20.613281 12.269531 20.613281 L 17.949219 20.613281 C 20.175781 20.613281 22.003906 18.785156 22.003906 16.558594 L 22.003906 10.878906 C 22.003906 8.652344 20.175781 6.824219 17.949219 6.824219 Z M 12.269531 8.078125 L 17.949219 8.078125 C 19.5 8.078125 20.75 9.328125 20.75 10.878906 L 20.75 16.558594 C 20.75 18.109375 19.5 19.359375 17.949219 19.359375 L 12.269531 19.359375 C 10.71875 19.359375 9.46875 18.109375 9.46875 16.558594 L 9.46875 10.878906 C 9.46875 9.328125 10.71875 8.078125 12.269531 8.078125 Z M 18.8125 9.449219 C 18.496094 9.449219 18.242188 9.699219 18.242188 10.015625 C 18.242188 10.332031 18.496094 10.582031 18.8125 10.582031 C 19.128906 10.582031 19.378906 10.332031 19.378906 10.015625 C 19.378906 9.699219 19.128906 9.449219 18.8125 9.449219 Z M 15.109375 9.957031 C 13.039062 9.957031 11.347656 11.648438 11.347656 13.71875 C 11.347656 15.785156 13.039062 17.480469 15.109375 17.480469 C 17.179688 17.480469 18.871094 15.785156 18.871094 13.71875 C 18.871094 11.648438 17.179688 9.957031 15.109375 9.957031 Z M 15.109375 11.210938 C 16.503906 11.210938 17.617188 12.324219 17.617188 13.71875 C 17.617188 15.109375 16.503906 16.226562 15.109375 16.226562 C 13.714844 16.226562 12.601562 15.109375 12.601562 13.71875 C 12.601562 12.324219 13.714844 11.210938 15.109375 11.210938 Z M 15.109375 11.210938 " fill-opacity="1" fill-rule="nonzero"/></g></svg>