<svg xmlns="http://www.w3.org/2000/svg" xmlns:xlink="http://www.w3.org/1999/xlink" width="40" zoomAndPan="magnify" viewBox="0 0 30 30.000001" height="40" preserveAspectRatio="xMidYMid meet" version="1.0"><defs><clipPath id="2f1bd6692c"><path d="M 0.484375 0 L 29.515625 0 L 29.515625 29.03125 L 0.484375 29.03125 Z M 0.484375 0 " clip-rule="nonzero"/></clipPath><clipPath id="ed87dd9356"><path d="M 7.960938 6.53125 L 21.75 6.53125 L 21.75 20.324219 L 7.960938 20.324219 Z M 7.960938 6.53125 " clip-rule="nonzero"/></clipPath></defs><g clip-path="url(#2f1bd6692c)"><path fill="#ffffff" d="M 0.484375 0 L 29.515625 0 L 29.515625 29.03125 L 0.484375 29.03125 Z M 0.484375 0 " fill-opacity="1" fill-rule="nonzero"/><path fill="#000000" d="M 0.484375 0 L 29.515625 0 L 29.515625 29.03125 L 0.484375 29.03125 Z M 0.484375 0 " fill-opacity="1" fill-rule="nonzero"/></g><g clip-path="url(#ed87dd9356)"><path fill="#ffffff" d="M 20.597656 6.53125 L 9.117188 6.53125 C 8.484375 6.53125 7.972656 7.050781 7.972656 7.675781 L 7.972656 19.175781 C 7.972656 19.8125 8.492188 20.324219 9.117188 20.324219 L 20.589844 20.324219 C 21.226562 20.324219 21.734375 19.804688 21.734375 19.175781 L 21.734375 7.675781 C 21.742188 7.050781 21.234375 6.53125 20.597656 6.53125 Z M 12.050781 17.90625 L 10.015625 17.90625 L 10.015625 11.796875 L 12.050781 11.796875 Z M 11.03125 11.058594 C 10.386719 11.058594 9.871094 10.539062 9.871094 9.898438 C 9.871094 9.257812 10.386719 8.738281 11.03125 8.738281 C 11.671875 8.738281 12.1875 9.257812 12.1875 9.898438 C 12.1875 10.539062 11.671875 11.058594 11.03125 11.058594 Z M 19.707031 17.90625 L 17.667969 17.90625 L 17.617188 14.28125 C 17.617188 14.28125 17.667969 13.3125 16.609375 13.320312 C 15.554688 13.328125 15.410156 14.28125 15.410156 14.28125 L 15.410156 17.90625 L 13.355469 17.90625 L 13.355469 11.796875 L 15.328125 11.796875 L 15.328125 12.636719 C 15.328125 12.636719 15.410156 12.363281 15.867188 12.039062 C 16.320312 11.714844 17.074219 11.644531 17.398438 11.65625 C 17.722656 11.671875 18.164062 11.617188 18.902344 12.128906 C 19.695312 12.671875 19.714844 14.101562 19.714844 14.101562 Z M 19.707031 17.90625 " fill-opacity="1" fill-rule="nonzero"/></g></svg>